<?xml version="1.0" encoding="UTF-8" standalone="no"?>
<svg
   xmlns:dc="http://purl.org/dc/elements/1.1/"
   xmlns:cc="http://creativecommons.org/ns#"
   xmlns:rdf="http://www.w3.org/1999/02/22-rdf-syntax-ns#"
   xmlns:svg="http://www.w3.org/2000/svg"
   xmlns="http://www.w3.org/2000/svg"
   xmlns:sodipodi="http://sodipodi.sourceforge.net/DTD/sodipodi-0.dtd"
   xmlns:inkscape="http://www.inkscape.org/namespaces/inkscape"
   width="80"
   height="80"
   viewBox="0 0 250 250"
   fill="#151513"
   style="position: absolute; top: 0; right: 0"
   version="1.1"
   id="svg8"
   sodipodi:docname="github-corner.svg"
   inkscape:version="0.92.4 (5da689c313, 2019-01-14)">
  <metadata
     id="metadata14">
    <rdf:RDF>
      <cc:Work
         rdf:about="">
        <dc:format>image/svg+xml</dc:format>
        <dc:type
           rdf:resource="http://purl.org/dc/dcmitype/StillImage" />
      </cc:Work>
    </rdf:RDF>
  </metadata>
  <defs
     id="defs12" />
  <sodipodi:namedview
     pagecolor="#ffffff"
     bordercolor="#666666"
     borderopacity="1"
     objecttolerance="10"
     gridtolerance="10"
     guidetolerance="10"
     inkscape:pageopacity="0"
     inkscape:pageshadow="2"
     inkscape:window-width="1366"
     inkscape:window-height="704"
     id="namedview10"
     showgrid="false"
     inkscape:zoom="5.9"
     inkscape:cx="78.610725"
     inkscape:cy="39.592412"
     inkscape:window-x="0"
     inkscape:window-y="27"
     inkscape:window-maximized="1"
     inkscape:current-layer="svg8" />
  <path
     style="fill:#ffffff;stroke-width:0.31999999"
     d="M 0 0 L 36.800781 36.800781 L 38.400391 36.800781 L 40.574219 34.626953 C 36.289827 31.816055 38.080078 28.800781 38.080078 28.800781 C 39.040078 26.560781 38.720703 25.279297 38.720703 25.279297 C 38.400703 23.039297 39.679688 24.640625 39.679688 24.640625 C 40.959688 26.240625 40.320312 28.160156 40.320312 28.160156 C 39.556133 30.707422 41.017369 32.227206 42.292969 32.908203 L 42.880859 32.320312 C 43.840859 31.680312 44.799453 31.359375 45.439453 31.359375 C 42.879453 27.839375 40.640078 23.680234 46.080078 18.240234 C 47.680078 16.640234 49.279219 16 51.199219 16 C 51.519219 15.36 52.159064 13.760469 55.039062 12.480469 C 55.039062 12.480469 56.639297 13.439609 57.279297 17.599609 C 58.559297 18.239609 59.839141 19.200469 61.119141 20.480469 C 62.399141 21.760469 63.36 23.040312 64 24.320312 C 68.48 25.280313 69.439453 26.560547 69.439453 26.560547 C 68.159453 29.120547 66.559922 30.080078 65.919922 30.080078 C 65.919922 32.000078 65.279687 33.599219 63.679688 35.199219 C 58.559688 40.319219 54.080547 38.399844 50.560547 35.839844 C 50.560547 36.799844 50.240938 38.079375 48.960938 39.359375 L 45.119141 42.880859 C 44.799141 43.200859 45.439453 44.480469 45.439453 44.480469 L 44.734375 43.853516 L 45.439453 45.439453 L 80 80 L 80 0 L 0 0 z "
     transform="scale(3.125)"
     id="path2" />
</svg>
